<?xml version="1.0" encoding="UTF-8"?>
<svg width="22px" height="22px" viewBox="0 0 22 22" version="1.1" xmlns="http://www.w3.org/2000/svg" xmlns:xlink="http://www.w3.org/1999/xlink">
    <!-- Generator: Sketch 46.1 (44463) - http://www.bohemiancoding.com/sketch -->
    <title>icon_product_time</title>
    <desc>Created with Sketch.</desc>
    <defs></defs>
    <g id="svgs" stroke="none" stroke-width="1" fill="none" fill-rule="evenodd">
        <g id="Artboard" transform="translate(-12.000000, -197.000000)">
            <g id="icon_product_time" transform="translate(12.000000, 197.000000)">
                <rect id="Rectangle-5-Copy-8" fill-opacity="0" fill="#D8D8D8" x="0" y="0" width="22" height="22"></rect>
                <path d="M12,10 L12,8 C12,7.448 11.552,7 11,7 C10.448,7 10,7.448 10,8 L10,10 L10,12 L12,12 L14,12 C14.552,12 15,11.552 15,11 C15,10.448 14.552,10 14,10 L12,10 Z M11,19 C6.589,19 3,15.411 3,11 C3,6.589 6.589,3 11,3 C15.411,3 19,6.589 19,11 C19,15.411 15.411,19 11,19 Z M11,5 C7.691,5 5,7.691 5,11 C5,14.309 7.691,17 11,17 C14.309,17 17,14.309 17,11 C17,7.691 14.309,5 11,5 Z" id="icon表" fill="#FF6854"></path>
            </g>
            <g id="cut" transform="translate(12.000000, 12.000000)"></g>
        </g>
    </g>
</svg>