<?xml version="1.0" encoding="UTF-8"?>
<svg width="22px" height="22px" viewBox="0 0 22 22" version="1.1" xmlns="http://www.w3.org/2000/svg" xmlns:xlink="http://www.w3.org/1999/xlink">
    <!-- Generator: Sketch 46.1 (44463) - http://www.bohemiancoding.com/sketch -->
    <title>icon_product_new</title>
    <desc>Created with Sketch.</desc>
    <defs></defs>
    <g id="svgs" stroke="none" stroke-width="1" fill="none" fill-rule="evenodd">
        <g id="Artboard" transform="translate(-38.000000, -197.000000)">
            <g id="icon_product_new" transform="translate(38.000000, 197.000000)">
                <rect id="Rectangle-5-Copy-4" fill-opacity="0" fill="#D8D8D8" x="0" y="0" width="22" height="22"></rect>
                <path d="M15.8263477,16.349375 C15.0145543,17.1385625 14.1504779,17.958125 14.1504779,17.958125 L12.6606909,15.413375 C14.2207508,15.033125 15.5694297,14.132 16.5099631,12.90575 L18.1391717,15.687875 C18.1391717,15.687875 16.9777,16.022 15.8263477,16.349375 L15.8263477,16.349375 Z M11,12.6875 C8.82659754,12.6875 7.0647136,10.924625 7.0647136,8.75 C7.0647136,6.575375 8.82659754,4.8125 11,4.8125 C13.1734025,4.8125 14.9352864,6.575375 14.9352864,8.75 C14.9352864,10.924625 13.1734025,12.6875 11,12.6875 L11,12.6875 Z M7.84952214,17.958125 C7.84952214,17.958125 6.98544569,17.1385625 6.17365232,16.349375 C5.02229996,16.022 3.86082828,15.687875 3.86082828,15.687875 L5.49003685,12.90575 C6.4305703,14.132 7.77924917,15.033125 9.33930914,15.413375 L7.84952214,17.958125 L7.84952214,17.958125 Z M17.1958273,11.80775 C17.6472609,10.9015625 17.9081142,9.8868125 17.9081142,8.809625 C17.9081142,5.04875 14.8149791,2 11,2 C7.18502093,2 4.09188581,5.04875 4.09188581,8.809625 C4.09188581,9.8868125 4.35273908,10.9015625 4.80417265,11.80775 L2,16.594625 C2,16.594625 3.77818727,16.9518125 5.58223499,17.3230625 C6.78530826,18.6629375 7.9827597,20 7.9827597,20 L10.5609345,15.597875 C10.7071023,15.606875 10.8515835,15.6198125 11,15.6198125 C11.1484165,15.6198125 11.2928977,15.606875 11.4390655,15.597875 L14.0172403,20 C14.0172403,20 15.2146917,18.6629375 16.417765,17.3230625 C18.2218127,16.9518125 20,16.594625 20,16.594625 L17.1958273,11.80775 L17.1958273,11.80775 Z M11,5.9375 C9.44724842,5.9375 8.18908114,7.196375 8.18908114,8.75 C8.18908114,10.303625 9.44724842,11.5625 11,11.5625 C12.5527516,11.5625 13.8109189,10.303625 13.8109189,8.75 C13.8109189,7.196375 12.5527516,5.9375 11,5.9375 L11,5.9375 Z" id="Fill-157" fill="#97D25D"></path>
            </g>
            <g id="cut" transform="translate(12.000000, 12.000000)"></g>
        </g>
    </g>
</svg>