<?xml version="1.0" encoding="UTF-8"?>
<svg width="22px" height="22px" viewBox="0 0 22 22" version="1.1" xmlns="http://www.w3.org/2000/svg" xmlns:xlink="http://www.w3.org/1999/xlink">
    <!-- Generator: Sketch 46.1 (44463) - http://www.bohemiancoding.com/sketch -->
    <title>icon_product_hot</title>
    <desc>Created with Sketch.</desc>
    <defs></defs>
    <g id="svgs" stroke="none" stroke-width="1" fill="none" fill-rule="evenodd">
        <g id="Artboard" transform="translate(-66.000000, -197.000000)">
            <g id="icon_product_hot" transform="translate(66.000000, 197.000000)">
                <rect id="Rectangle-5-Copy" fill-opacity="0" fill="#D8D8D8" x="0" y="0" width="22" height="22"></rect>
                <path d="M16.612873,9 L16.612873,6 C18.8355257,6 18.8585846,5.8955 18.8585846,7 C18.8585846,8.1045 17.8535542,9 16.612873,9 L16.612873,9 Z M5.38712699,9 C4.14700826,9 3.14141538,8.1045 3.14141538,7 C3.14141538,5.8955 3.16447427,6 5.38712699,6 L5.38712699,9 L5.38712699,9 Z M16.612873,5 C16.612873,3.8955 15.6078425,3 14.3677238,3 L7.63227619,3 C6.39215746,3 5.38712699,3.8955 5.38712699,5 C1.54191529,5 2.01884077,4.9995 2.01884077,7 C2.01884077,8.6565 3.52666768,10 5.38712699,10 C5.52098108,10 5.64921104,9.981 5.77856583,9.965 C6.53219808,11.927 8.30773316,13.6945 10.4387127,13.964 L10.4387127,17 L8.7548508,17 C8.44496172,17 8.1935635,17.2235 8.1935635,17.5 C8.1935635,17.7765 8.44496172,18 8.7548508,18 L13.2451492,18 C13.5550383,18 13.8064365,17.7765 13.8064365,17.5 C13.8064365,17.2235 13.5550383,17 13.2451492,17 L11.5612873,17 L11.5612873,13.964 C13.6922668,13.6945 15.4678019,11.927 16.2219966,9.965 C16.350789,9.981 16.4790189,10 16.612873,10 C18.4733323,10 19.9811592,8.6565 19.9811592,7 C19.9811592,4.9995 20.4580847,5 16.612873,5 L16.612873,5 Z" id="Fill-158" fill="#F6A623"></path>
            </g>
            <g id="cut" transform="translate(12.000000, 12.000000)"></g>
        </g>
    </g>
</svg>